{  "asset": {    "version": "2.0",    "generator": "THREE.GLTFExporter"  },  "scenes": [    {      "name": "AuxScene",      "nodes": [        7      ]    }  ],  "scene": 0,  "nodes": [    {      "mesh": 0    },    {      "mesh": 1    },    {      "mesh": 2    },    {      "mesh": 3    },    {      "mesh": 4    },    {      "mesh": 5    },    {      "mesh": 6    },    {      "children": [        0,        1,        2,        3,        4,        5,        6      ]    }  ],  "bufferViews": [    {      "buffer": 0,      "byteOffset": 0,      "byteLength": 44496,      "target": 34962,      "byteStride": 12    },    {      "buffer": 0,      "byteOffset": 44496,      "byteLength": 44496,      "target": 34962,      "byteStride": 12    },    {      "buffer": 0,      "byteOffset": 88992,      "byteLength": 41472,      "target": 34962,      "byteStride": 12    },    {      "buffer": 0,      "byteOffset": 130464,      "byteLength": 41472,      "target": 34962,      "byteStride": 12    },    {      "buffer": 0,      "byteOffset": 171936,      "byteLength": 346464,      "target": 34962,      "byteStride": 12    },    {      "buffer": 0,      "byteOffset": 518400,      "byteLength": 346464,      "target": 34962,      "byteStride": 12    },    {      "buffer": 0,      "byteOffset": 864864,      "byteLength": 230976,      "target": 34962,      "byteStride": 8    },    {      "buffer": 0,      "byteOffset": 1095840,      "byteLength": 172440,      "target": 34962,      "byteStride": 12    },    {      "buffer": 0,      "byteOffset": 1268280,      "byteLength": 172440,      "target": 34962,      "byteStride": 12    },    {      "buffer": 0,      "byteOffset": 1440720,      "byteLength": 114960,      "target": 34962,      "byteStride": 8    },    {      "buffer": 0,      "byteOffset": 1555680,      "byteLength": 444096,      "target": 34962,      "byteStride": 12    },    {      "buffer": 0,      "byteOffset": 1999776,      "byteLength": 444096,      "target": 34962,      "byteStride": 12    },    {      "buffer": 0,      "byteOffset": 2443872,      "byteLength": 145152,      "target": 34962,      "byteStride": 12    },    {      "buffer": 0,      "byteOffset": 2589024,      "byteLength": 145152,      "target": 34962,      "byteStride": 12    },    {      "buffer": 0,      "byteOffset": 2734176,      "byteLength": 96768,      "target": 34962,      "byteStride": 8    },    {      "buffer": 0,      "byteOffset": 2830944,      "byteLength": 72000,      "target": 34962,      "byteStride": 12    },    {      "buffer": 0,      "byteOffset": 2902944,      "byteLength": 72000,      "target": 34962,      "byteStride": 12    }  ],  "buffers": [    {      "byteLength": 2974944,      "uri": "data:application/octet-stream;base64,"    }  ],  "accessors": [    {      "bufferView": 0,      "componentType": 5126,      "count": 3708,      "max": [        30.043563842773438,        -11.133896827697754,        27.63357925415039      ],      "min": [        7.222653865814209,        -13.963089942932129,        16.622167587280273      ],      "type": "VEC3"    },    {      "bufferView": 1,      "componentType": 5126,      "count": 3708,      "max": [        0.9961241483688354,        0.7085482478141785,        1      ],      "min": [        -1,        -0.7085482478141785,        -1      ],      "type": "VEC3"    },    {      "bufferView": 2,      "componentType": 5126,      "count": 3456,      "max": [        4.910624027252197,        -10.206171989440918,        27.304155349731445      ],      "min": [        -13.40042495727539,        -13.930976867675781,        16.545087814331055      ],      "type": "VEC3"    },    {      "bufferView": 3,      "componentType": 5126,      "count": 3456,      "max": [        0.7162999510765076,        1,        0.7264931201934814      ],      "min": [        -0.7400433421134949,        -1,        -0.7157810926437378      ],      "type": "VEC3"    },    {      "bufferView": 4,      "componentType": 5126,      "count": 28872,      "max": [        46.69565963745117,        38.39256286621094,        32.66963577270508      ],      "min": [        -45.57392501831055,        4.822305202484131,        -1.1815307140350342      ],      "type": "VEC3"    },    {      "bufferView": 5,      "componentType": 5126,      "count": 28872,      "max": [        1,        1,        1      ],      "min": [        -1,        -1,        -0.9998779296875      ],      "type": "VEC3"    },    {      "bufferView": 6,      "componentType": 5126,      "count": 28872,      "max": [        1,        1      ],      "min": [        0,        0      ],      "type": "VEC2"    },    {      "bufferView": 7,      "componentType": 5126,      "count": 14370,      "max": [        46.32203674316406,        21.686656951904297,        32.66963577270508      ],      "min": [        -45.57392501831055,        4.822305202484131,        -1.1815307140350342      ],      "type": "VEC3"    },    {      "bufferView": 8,      "componentType": 5126,      "count": 14370,      "max": [        0.99993896484375,        1,        0.99969482421875      ],      "min": [        -1,        -1,        -0.999420166015625      ],      "type": "VEC3"    },    {      "bufferView": 9,      "componentType": 5126,      "count": 14370,      "max": [        1,        1      ],      "min": [        0,        0      ],      "type": "VEC2"    },    {      "bufferView": 10,      "componentType": 5126,      "count": 37008,      "max": [        44.73539733886719,        -4.8223090171813965,        1.5635731220245361      ],      "min": [        -46.69565963745117,        -38.39256286621094,        -32.669639587402344      ],      "type": "VEC3"    },    {      "bufferView": 11,      "componentType": 5126,      "count": 37008,      "max": [        1,        1,        1      ],      "min": [        -1,        -1,        -1      ],      "type": "VEC3"    },    {      "bufferView": 12,      "componentType": 5126,      "count": 12096,      "max": [        18.082849502563477,        33.0572395324707,        19.240436553955078      ],      "min": [        -11.794245719909668,        10.107114791870117,        1.3453283309936523      ],      "type": "VEC3"    },    {      "bufferView": 13,      "componentType": 5126,      "count": 12096,      "max": [        0.9984740614891052,        1,        0.9956053495407104      ],      "min": [        -0.9939878582954407,        -1,        -1      ],      "type": "VEC3"    },    {      "bufferView": 14,      "componentType": 5126,      "count": 12096,      "max": [        1,        1      ],      "min": [        0,        0      ],      "type": "VEC2"    },    {      "bufferView": 15,      "componentType": 5126,      "count": 6000,      "max": [        -11.693544387817383,        17.383460998535156,        15.187301635742188      ],      "min": [        -16.32074737548828,        12.281188011169434,        11.076231002807617      ],      "type": "VEC3"    },    {      "bufferView": 16,      "componentType": 5126,      "count": 6000,      "max": [        0.9870906472206116,        1,        0.9875484704971313      ],      "min": [        -0.9565111398696899,        -1,        -0.9982604384422302      ],      "type": "VEC3"    }  ],  "materials": [    {      "pbrMetallicRoughness": {        "metallicFactor": 0.5,        "roughnessFactor": 0.5      },      "doubleSided": true,      "name": "mat4"    },    {      "pbrMetallicRoughness": {        "baseColorFactor": [          0.6038273388475408,          0.6038273388475408,          0.6038273388475408,          1        ],        "metallicFactor": 0.5,        "roughnessFactor": 0.5      },      "doubleSided": true,      "name": "mat1"    },    {      "pbrMetallicRoughness": {        "baseColorFactor": [          0.6038273388475408,          0.6038273388475408,          0.6038273388475408,          1        ],        "metallicFactor": 0.5,        "roughnessFactor": 0.5      },      "doubleSided": true,      "name": "mat2"    },    {      "pbrMetallicRoughness": {        "baseColorFactor": [          0.6038273388475408,          0.6038273388475408,          0.6038273388475408,          1        ],        "metallicFactor": 0.5,        "roughnessFactor": 0.5      },      "doubleSided": true,      "name": "mat3"    }  ],  "meshes": [    {      "primitives": [        {          "mode": 4,          "attributes": {            "POSITION": 0,            "NORMAL": 1          },          "material": 0        }      ]    },    {      "primitives": [        {          "mode": 4,          "attributes": {            "POSITION": 2,            "NORMAL": 3          },          "material": 0        }      ]    },    {      "primitives": [        {          "mode": 4,          "attributes": {            "POSITION": 4,            "NORMAL": 5,            "TEXCOORD_0": 6          },          "material": 1        }      ]    },    {      "primitives": [        {          "mode": 4,          "attributes": {            "POSITION": 7,            "NORMAL": 8,            "TEXCOORD_0": 9          },          "material": 2        }      ]    },    {      "primitives": [        {          "mode": 4,          "attributes": {            "POSITION": 10,            "NORMAL": 11          },          "material": 0        }      ]    },    {      "primitives": [        {          "mode": 4,          "attributes": {            "POSITION": 12,            "NORMAL": 13,            "TEXCOORD_0": 14          },          "material": 3        }      ]    },    {      "primitives": [        {          "mode": 4,          "attributes": {            "POSITION": 15,            "NORMAL": 16          },          "material": 0        }      ]    }  ]}